<svg id="svg" xmlns="http://www.w3.org/2000/svg" xmlns:xlink="http://www.w3.org/1999/xlink" width="400" height="222.5" viewBox="0, 0, 400,222.5"><g id="svgg"><path id="path0" d="M102.781 15.606 C 102.572 16.304,102.298 16.875,102.172 16.875 C 102.046 16.875,101.848 17.262,101.733 17.734 C 100.971 20.856,97.090 21.999,93.585 20.135 C 92.790 19.713,92.010 19.448,91.851 19.546 C 91.462 19.786,91.482 20.938,91.875 20.938 C 92.047 20.938,92.188 21.092,92.188 21.281 C 92.188 21.470,92.821 22.208,93.596 22.922 C 95.749 24.905,95.877 25.000,96.390 25.000 C 96.654 25.000,97.045 25.281,97.260 25.625 C 97.475 25.969,97.827 26.250,98.044 26.250 C 98.273 26.250,98.438 26.642,98.438 27.188 C 98.438 27.703,98.280 28.125,98.089 28.125 C 97.885 28.125,97.802 28.450,97.889 28.906 C 97.971 29.336,97.931 29.688,97.800 29.688 C 97.669 29.688,97.463 30.531,97.344 31.563 C 97.224 32.594,97.016 33.438,96.880 33.438 C 96.745 33.438,96.538 34.211,96.420 35.156 C 96.302 36.102,96.088 36.875,95.944 36.875 C 95.801 36.875,95.587 37.578,95.469 38.438 C 95.351 39.297,95.146 40.000,95.015 40.000 C 94.883 40.000,94.596 41.055,94.375 42.344 C 94.154 43.633,93.867 44.688,93.735 44.688 C 93.604 44.688,93.399 45.391,93.281 46.250 C 93.163 47.109,92.952 47.813,92.813 47.813 C 92.673 47.813,92.462 48.516,92.344 49.375 C 92.226 50.234,91.985 50.938,91.809 50.938 C 91.633 50.938,91.563 51.219,91.653 51.563 C 91.743 51.906,91.707 52.188,91.574 52.188 C 91.440 52.188,91.237 52.891,91.123 53.750 C 91.009 54.609,90.789 55.313,90.633 55.313 C 90.478 55.313,90.256 55.945,90.140 56.719 C 90.024 57.492,89.817 58.125,89.679 58.125 C 89.542 58.125,89.335 58.688,89.219 59.375 C 89.103 60.063,88.895 60.625,88.758 60.625 C 88.621 60.625,88.336 61.539,88.125 62.656 C 87.914 63.773,87.623 64.688,87.479 64.688 C 87.334 64.688,87.123 65.180,87.011 65.781 C 86.898 66.383,86.689 66.875,86.547 66.875 C 86.405 66.875,86.193 67.508,86.077 68.281 C 85.961 69.055,85.756 69.688,85.621 69.688 C 85.485 69.688,85.206 70.391,85.000 71.250 C 84.794 72.109,84.514 72.813,84.379 72.813 C 84.243 72.813,84.040 73.305,83.927 73.906 C 83.814 74.508,83.603 75.000,83.458 75.000 C 83.313 75.000,83.102 75.492,82.989 76.094 C 82.877 76.695,82.635 77.188,82.452 77.188 C 82.270 77.188,82.202 77.398,82.301 77.656 C 82.399 77.914,82.344 78.125,82.178 78.125 C 82.011 78.125,81.875 78.406,81.875 78.750 C 81.875 79.094,81.719 79.375,81.529 79.375 C 81.339 79.375,81.264 79.586,81.363 79.844 C 81.462 80.102,81.418 80.313,81.265 80.313 C 81.112 80.313,80.895 80.734,80.781 81.250 C 80.668 81.766,80.461 82.188,80.322 82.188 C 80.182 82.188,79.981 82.534,79.874 82.958 C 79.754 83.437,79.520 83.666,79.256 83.565 C 79.022 83.475,78.612 83.621,78.344 83.888 C 77.555 84.677,64.515 84.598,62.222 83.790 C 59.401 82.797,57.561 80.313,59.287 79.829 C 60.551 79.475,60.994 79.610,61.949 80.640 C 63.891 82.735,65.082 80.430,63.190 78.237 C 59.684 74.171,54.092 76.572,54.067 82.155 C 54.057 84.460,56.709 89.375,57.963 89.375 C 58.086 89.375,58.630 89.584,59.172 89.839 C 60.146 90.299,64.334 90.995,69.922 91.626 C 71.512 91.806,72.813 92.076,72.813 92.226 C 72.813 92.377,73.410 92.511,74.141 92.525 C 74.871 92.538,75.293 92.620,75.078 92.707 C 74.863 92.794,74.688 93.013,74.688 93.195 C 74.687 93.652,73.367 96.315,72.891 96.819 C 72.676 97.046,72.500 97.433,72.500 97.679 C 72.500 97.924,72.344 98.125,72.154 98.125 C 71.964 98.125,71.889 98.336,71.988 98.594 C 72.087 98.852,72.043 99.063,71.890 99.063 C 71.737 99.063,71.520 99.484,71.406 100.000 C 71.293 100.516,71.082 100.938,70.938 100.938 C 70.793 100.938,70.582 101.359,70.469 101.875 C 70.355 102.391,70.136 102.813,69.981 102.813 C 69.826 102.813,69.611 103.164,69.503 103.594 C 69.395 104.023,69.167 104.375,68.995 104.375 C 68.824 104.375,68.764 104.586,68.863 104.844 C 68.962 105.102,68.918 105.313,68.765 105.313 C 68.612 105.313,68.395 105.734,68.281 106.250 C 68.168 106.766,67.957 107.188,67.813 107.188 C 67.668 107.188,67.457 107.609,67.344 108.125 C 67.230 108.641,67.011 109.063,66.856 109.063 C 66.701 109.063,66.486 109.414,66.378 109.844 C 66.270 110.273,66.042 110.625,65.870 110.625 C 65.699 110.625,65.639 110.836,65.738 111.094 C 65.837 111.352,65.793 111.563,65.640 111.563 C 65.487 111.563,65.270 111.984,65.156 112.500 C 65.043 113.016,64.832 113.438,64.688 113.438 C 64.543 113.438,64.332 113.859,64.219 114.375 C 64.105 114.891,63.883 115.313,63.725 115.313 C 63.567 115.313,63.438 115.513,63.437 115.759 C 63.437 116.004,63.218 116.425,62.949 116.694 C 62.680 116.963,62.548 117.324,62.655 117.498 C 62.762 117.671,62.700 117.813,62.518 117.813 C 62.336 117.813,62.188 118.154,62.188 118.571 C 62.187 118.989,61.984 119.534,61.734 119.784 C 61.485 120.033,61.188 120.606,61.075 121.056 C 60.962 121.506,60.756 121.875,60.616 121.875 C 60.476 121.875,60.270 122.297,60.156 122.813 C 60.043 123.328,59.847 123.750,59.721 123.750 C 59.595 123.750,59.299 124.242,59.063 124.844 C 58.826 125.445,58.530 125.938,58.404 125.938 C 58.278 125.938,58.085 126.348,57.974 126.849 C 57.864 127.350,57.572 127.838,57.325 127.933 C 57.077 128.028,56.875 128.312,56.875 128.564 C 56.875 129.044,51.295 128.931,50.938 128.443 C 50.741 128.175,45.293 127.555,44.766 127.741 C 44.056 127.992,44.338 129.792,45.194 130.469 C 45.628 130.813,46.736 131.797,47.655 132.656 C 48.574 133.516,49.711 134.500,50.183 134.844 C 51.689 135.941,52.022 136.358,51.526 136.520 C 51.288 136.598,50.909 136.922,50.682 137.241 C 50.456 137.560,49.753 138.102,49.120 138.445 C 47.399 139.378,46.828 139.772,46.078 140.547 C 45.704 140.934,45.273 141.252,45.120 141.255 C 44.968 141.258,44.513 141.610,44.108 142.037 C 43.703 142.463,43.249 142.812,43.100 142.812 C 42.750 142.812,39.063 146.561,39.062 146.917 C 39.062 147.065,38.359 147.863,37.500 148.692 C 36.641 149.520,35.937 150.330,35.938 150.493 C 35.938 150.655,35.516 151.137,35.000 151.562 C 34.484 151.988,34.063 152.509,34.063 152.718 C 34.063 152.928,33.677 153.457,33.206 153.894 C 32.735 154.330,32.461 154.688,32.597 154.688 C 32.733 154.687,32.511 155.004,32.102 155.391 C 31.694 155.777,31.269 156.340,31.158 156.641 C 31.048 156.941,30.812 157.188,30.635 157.188 C 30.458 157.188,30.313 157.381,30.313 157.618 C 30.313 157.855,30.103 158.222,29.847 158.435 C 29.591 158.647,29.459 158.946,29.553 159.098 C 29.647 159.250,29.575 159.375,29.393 159.375 C 29.211 159.375,29.063 159.564,29.062 159.796 C 29.062 160.166,28.793 160.565,27.518 162.083 C 27.350 162.283,27.122 162.810,27.010 163.254 C 26.899 163.699,26.674 164.063,26.510 164.063 C 26.347 164.063,26.300 164.203,26.406 164.375 C 26.512 164.547,26.462 164.688,26.293 164.688 C 26.125 164.688,25.895 165.109,25.781 165.625 C 25.668 166.141,25.457 166.563,25.313 166.563 C 25.168 166.563,24.957 166.984,24.844 167.500 C 24.730 168.016,24.520 168.438,24.375 168.438 C 24.230 168.438,24.020 168.859,23.906 169.375 C 23.793 169.891,23.563 170.313,23.394 170.313 C 23.226 170.313,23.169 170.443,23.268 170.603 C 23.367 170.763,23.321 170.973,23.166 171.069 C 23.010 171.165,22.791 171.737,22.678 172.340 C 22.564 172.944,22.366 173.438,22.238 173.438 C 21.901 173.438,21.141 177.078,21.359 177.647 C 21.518 178.060,22.882 178.134,31.396 178.191 C 36.816 178.227,41.988 178.263,42.891 178.269 L 44.531 178.281 44.625 176.484 C 44.677 175.482,44.866 174.688,45.051 174.688 C 45.243 174.688,45.325 174.290,45.246 173.750 C 45.170 173.234,45.209 172.813,45.332 172.813 C 45.455 172.813,45.648 172.320,45.761 171.719 C 45.873 171.117,46.084 170.625,46.229 170.625 C 46.374 170.625,46.585 170.133,46.698 169.531 C 46.811 168.930,47.026 168.438,47.177 168.438 C 47.327 168.438,47.543 168.016,47.656 167.500 C 47.770 166.984,48.007 166.563,48.183 166.563 C 48.360 166.563,48.423 166.352,48.324 166.094 C 48.226 165.836,48.285 165.625,48.457 165.625 C 48.629 165.625,48.863 165.382,48.977 165.085 C 49.091 164.788,49.508 164.245,49.905 163.877 C 50.301 163.510,50.625 163.057,50.625 162.870 C 50.625 162.684,50.870 162.394,51.169 162.226 C 51.469 162.059,51.623 161.832,51.513 161.721 C 51.291 161.499,55.442 157.187,55.879 157.188 C 56.030 157.188,56.479 156.906,56.875 156.563 C 57.271 156.219,57.785 155.938,58.017 155.938 C 58.248 155.938,58.438 155.815,58.438 155.666 C 58.438 155.516,59.070 155.217,59.844 155.000 C 60.617 154.783,61.250 154.493,61.250 154.354 C 61.250 154.215,61.918 154.002,62.734 153.882 C 63.551 153.762,64.319 153.507,64.441 153.317 C 64.765 152.813,73.508 152.867,73.677 153.374 C 73.746 153.581,74.177 153.760,74.635 153.772 C 75.643 153.799,76.963 154.302,76.250 154.387 C 75.992 154.418,76.414 154.567,77.188 154.718 C 77.961 154.869,78.750 155.205,78.941 155.465 C 79.132 155.725,79.413 155.938,79.566 155.938 C 79.719 155.939,80.125 156.360,80.469 156.875 C 80.813 157.390,81.192 157.811,81.313 157.812 C 81.866 157.814,85.313 163.653,85.313 164.588 C 85.313 164.815,85.437 165.000,85.590 165.000 C 85.743 165.000,85.960 165.492,86.073 166.094 C 86.186 166.695,86.413 167.188,86.577 167.188 C 86.741 167.188,86.875 167.406,86.875 167.673 C 86.875 167.941,87.143 168.749,87.472 169.470 C 87.800 170.191,88.170 171.344,88.294 172.031 C 88.418 172.719,88.624 173.422,88.751 173.594 C 88.879 173.766,89.078 174.539,89.194 175.313 C 89.572 177.842,88.908 177.691,100.533 177.898 C 110.728 178.079,110.912 178.071,111.108 177.455 C 111.356 176.673,110.943 170.313,110.644 170.313 C 110.523 170.313,110.247 168.591,110.031 166.487 C 109.814 164.383,109.534 162.590,109.409 162.503 C 109.285 162.415,109.028 161.359,108.839 160.156 C 108.266 156.510,107.088 152.118,106.061 149.797 C 105.821 149.255,105.625 148.655,105.625 148.464 C 105.625 148.273,105.493 147.872,105.332 147.574 C 104.690 146.386,103.438 143.457,103.438 143.144 C 103.438 142.962,103.297 142.813,103.125 142.813 C 102.953 142.813,102.807 142.566,102.800 142.266 C 102.792 141.965,102.318 140.734,101.746 139.531 C 100.497 136.908,100.493 136.926,102.744 135.765 C 103.727 135.258,104.644 134.668,104.781 134.453 C 104.919 134.238,105.220 134.063,105.451 134.063 C 105.682 134.063,105.952 133.852,106.051 133.594 C 106.149 133.336,106.446 133.125,106.709 133.125 C 106.972 133.125,107.188 132.996,107.188 132.837 C 107.188 132.679,107.619 132.455,108.146 132.339 C 108.673 132.223,109.181 131.931,109.273 131.689 C 109.366 131.448,109.628 131.250,109.855 131.250 C 110.311 131.250,111.250 130.416,111.250 130.010 C 111.250 129.869,109.598 129.757,107.578 129.761 C 105.559 129.766,102.294 129.645,100.323 129.494 L 96.740 129.219 96.450 128.203 C 96.290 127.645,96.039 127.187,95.892 127.188 C 95.745 127.188,95.624 127.012,95.623 126.797 C 95.622 126.582,95.399 125.984,95.126 125.469 C 94.854 124.953,94.488 123.055,94.312 121.250 C 94.137 119.445,93.879 117.827,93.740 117.654 C 93.600 117.480,93.386 115.969,93.263 114.294 C 93.140 112.620,92.933 111.250,92.803 111.250 C 92.674 111.250,92.473 109.809,92.357 108.047 C 92.242 106.285,92.023 104.070,91.871 103.125 C 91.718 102.180,91.498 99.965,91.382 98.203 L 91.169 95.000 97.769 95.000 C 105.175 95.000,106.108 94.809,109.061 92.687 C 109.922 92.069,110.767 91.563,110.938 91.563 C 111.110 91.563,111.250 91.447,111.250 91.306 C 111.250 90.713,115.510 89.203,118.203 88.842 C 119.609 88.653,119.667 88.922,118.608 90.729 C 117.157 93.204,118.442 93.420,121.326 91.187 C 125.072 88.286,126.956 86.063,126.723 84.819 C 126.661 84.489,126.600 84.127,126.586 84.015 C 126.489 83.187,116.512 83.197,115.514 84.025 C 115.295 84.207,114.319 84.450,113.346 84.564 C 112.270 84.690,111.655 84.896,111.774 85.090 C 111.902 85.297,111.493 85.342,110.595 85.218 C 109.677 85.091,109.427 85.120,109.844 85.304 C 110.400 85.551,110.374 85.583,109.605 85.603 C 109.130 85.615,108.497 85.761,108.199 85.928 C 107.900 86.095,106.813 86.451,105.781 86.721 C 104.750 86.990,103.414 87.344,102.813 87.507 C 100.783 88.058,95.313 86.947,95.313 85.984 C 95.313 85.762,94.471 85.275,93.057 84.679 L 92.208 84.321 92.401 81.301 C 92.508 79.640,92.694 78.211,92.816 78.125 C 92.938 78.039,93.139 76.423,93.263 74.534 C 93.388 72.644,93.634 71.009,93.810 70.900 C 93.987 70.791,94.080 70.052,94.017 69.257 C 93.953 68.463,93.992 67.812,94.101 67.813 C 94.211 67.813,94.401 66.617,94.522 65.156 C 94.644 63.695,94.862 62.500,95.007 62.500 C 95.151 62.500,95.368 61.375,95.488 60.000 C 95.608 58.625,95.814 57.500,95.946 57.500 C 96.078 57.500,96.285 56.516,96.406 55.313 C 96.527 54.109,96.768 53.125,96.941 53.125 C 97.117 53.125,97.200 52.642,97.128 52.031 C 97.058 51.430,97.096 50.938,97.214 50.938 C 97.331 50.938,97.525 49.883,97.646 48.594 C 97.767 47.305,97.978 46.250,98.115 46.250 C 98.252 46.250,98.463 45.336,98.582 44.219 C 98.702 43.102,98.911 42.188,99.047 42.188 C 99.183 42.188,99.390 41.344,99.506 40.313 C 99.623 39.281,99.833 38.438,99.973 38.438 C 100.113 38.438,100.316 37.791,100.425 37.000 C 100.533 36.209,100.846 34.838,101.120 33.953 C 102.206 30.443,102.461 29.476,102.657 28.125 C 102.857 26.738,102.885 26.711,104.633 26.143 C 107.761 25.126,109.741 24.039,111.296 22.484 C 113.400 20.380,113.244 19.677,110.930 20.832 C 110.358 21.117,108.890 21.415,107.670 21.493 C 104.697 21.684,104.531 21.474,104.531 17.530 C 104.531 13.986,103.580 12.940,102.781 15.606 M86.245 81.953 C 86.240 82.785,85.747 83.664,85.452 83.368 C 85.276 83.193,85.935 81.250,86.170 81.250 C 86.214 81.250,86.248 81.566,86.245 81.953 M81.250 102.813 C 81.250 105.597,81.242 105.625,80.477 105.625 C 79.707 105.625,79.602 103.925,80.341 103.432 C 80.475 103.342,80.682 102.534,80.801 101.635 C 81.116 99.265,81.250 99.618,81.250 102.813 M79.837 112.266 C 79.944 113.168,79.989 117.563,79.938 122.031 L 79.844 130.156 77.813 130.048 C 76.695 129.988,75.734 129.813,75.677 129.657 C 75.620 129.502,74.460 129.375,73.099 129.375 C 70.833 129.375,70.625 129.322,70.625 128.750 C 70.625 128.406,70.743 128.125,70.888 128.125 C 71.032 128.125,71.324 127.352,71.535 126.406 C 71.747 125.461,72.050 124.688,72.210 124.688 C 72.369 124.688,72.500 124.367,72.500 123.976 C 72.500 123.584,72.693 122.987,72.929 122.648 C 73.165 122.309,73.457 121.574,73.579 121.016 C 73.700 120.457,73.929 120.000,74.087 120.000 C 74.246 120.000,74.375 119.785,74.375 119.522 C 74.375 119.065,75.661 115.684,76.218 114.677 C 76.364 114.414,76.582 113.746,76.704 113.193 C 76.825 112.640,77.039 112.188,77.178 112.188 C 77.318 112.188,77.520 111.836,77.628 111.406 C 78.048 109.735,79.609 110.342,79.837 112.266 M274.866 118.090 C 274.771 118.242,274.181 118.463,273.555 118.580 C 271.765 118.916,267.500 122.479,267.500 123.638 C 267.500 123.871,267.359 124.063,267.188 124.063 C 267.000 124.063,266.875 125.313,266.875 127.188 C 266.875 128.906,267.000 130.313,267.154 130.313 C 267.307 130.313,267.526 130.684,267.640 131.139 C 267.970 132.456,269.658 134.813,270.732 135.459 C 272.334 136.421,274.503 137.480,274.896 137.490 C 275.096 137.496,275.307 137.634,275.365 137.797 C 275.422 137.961,276.453 138.183,277.656 138.290 C 278.859 138.397,280.125 138.599,280.469 138.738 C 281.462 139.141,285.324 139.780,285.528 139.576 C 285.870 139.235,284.968 138.480,283.963 138.265 C 283.416 138.148,282.828 137.947,282.656 137.817 C 282.484 137.688,281.816 137.486,281.172 137.370 C 280.527 137.254,280.000 137.041,280.000 136.896 C 280.000 136.752,279.367 136.539,278.594 136.423 C 277.820 136.307,277.188 136.106,277.188 135.977 C 277.188 135.849,276.484 135.563,275.625 135.343 C 274.766 135.122,274.063 134.815,274.063 134.659 C 274.063 134.503,273.880 134.375,273.657 134.375 C 273.434 134.375,272.907 133.953,272.485 133.438 C 272.064 132.923,271.473 132.199,271.172 131.828 C 270.871 131.458,270.621 130.930,270.615 130.655 C 270.610 130.381,270.399 129.883,270.146 129.550 C 269.317 128.453,270.167 124.318,271.328 123.802 C 271.457 123.745,271.563 123.538,271.563 123.343 C 271.563 122.826,273.130 121.563,273.773 121.563 C 274.075 121.563,274.382 121.387,274.454 121.172 C 274.617 120.685,283.085 120.685,283.395 121.172 C 283.504 121.344,284.051 121.583,284.609 121.704 C 285.168 121.826,285.625 122.054,285.625 122.212 C 285.625 122.371,285.863 122.500,286.154 122.500 C 287.888 122.500,294.041 127.452,296.249 130.625 C 296.668 131.227,297.176 131.890,297.378 132.099 C 297.581 132.308,298.070 133.151,298.466 133.974 C 298.862 134.796,299.369 135.655,299.593 135.882 C 299.817 136.109,300.000 136.496,300.000 136.741 C 300.000 136.987,300.141 137.188,300.313 137.188 C 300.484 137.188,300.630 137.363,300.636 137.578 C 300.641 137.793,300.918 138.531,301.250 139.219 C 301.582 139.906,301.859 140.658,301.864 140.889 C 301.870 141.121,302.078 141.683,302.327 142.139 C 303.335 143.990,304.548 147.180,305.049 149.297 C 305.222 150.027,305.477 150.625,305.616 150.625 C 305.756 150.625,305.966 151.012,306.084 151.484 C 306.202 151.957,306.477 152.555,306.695 152.813 C 306.913 153.070,308.756 158.203,310.791 164.219 C 312.826 170.234,314.640 175.260,314.823 175.386 C 315.418 175.796,321.455 175.665,321.795 175.234 C 321.965 175.020,324.111 168.809,326.564 161.433 C 331.579 146.353,331.472 147.188,328.398 147.188 C 325.471 147.188,325.831 146.534,322.048 158.723 C 320.175 164.763,318.539 169.595,318.414 169.461 C 318.288 169.328,316.821 164.859,315.152 159.531 C 313.483 154.203,311.853 149.040,311.528 148.057 C 311.203 147.074,310.938 145.976,310.938 145.616 C 310.938 145.257,310.797 145.050,310.625 145.156 C 310.453 145.262,310.313 145.046,310.313 144.675 C 310.313 143.974,310.009 143.204,308.596 140.313 C 307.399 137.864,306.740 136.703,306.228 136.135 C 304.921 134.685,303.867 133.377,302.419 131.406 C 299.670 127.664,294.064 122.375,292.480 122.027 C 291.999 121.921,291.438 121.633,291.233 121.386 C 291.029 121.139,290.677 120.938,290.453 120.938 C 290.228 120.938,289.859 120.762,289.632 120.547 C 289.250 120.186,287.292 119.497,283.223 118.292 C 281.453 117.768,275.159 117.616,274.866 118.090 M221.172 145.650 C 220.685 145.933,220.625 146.549,220.625 151.244 L 220.625 156.520 219.099 155.493 C 214.085 152.119,208.438 155.115,206.993 161.916 C 204.654 172.924,213.005 180.261,220.441 173.732 L 221.525 172.781 221.622 174.125 L 221.719 175.469 223.906 175.469 L 226.094 175.469 226.176 160.781 C 226.251 147.251,226.216 146.063,225.725 145.703 C 225.089 145.236,221.945 145.200,221.172 145.650 M264.763 145.572 C 264.453 145.768,264.386 148.994,264.450 160.645 L 264.531 175.469 267.031 175.469 L 269.531 175.469 269.612 160.645 C 269.704 143.968,269.932 145.322,267.031 145.322 C 266.000 145.322,264.979 145.435,264.763 145.572 M334.930 146.298 C 332.873 147.050,333.170 150.985,335.327 151.566 C 337.772 152.225,339.504 151.450,339.863 149.538 C 340.395 146.701,338.047 145.159,334.930 146.298 M161.797 149.590 C 161.334 149.711,161.250 150.113,161.250 152.193 L 161.250 154.653 159.766 154.749 L 158.281 154.844 158.281 156.875 L 158.281 158.906 159.744 159.001 L 161.206 159.095 161.306 165.719 C 161.444 174.852,162.224 176.055,167.880 175.870 C 171.269 175.760,171.719 175.421,171.719 172.984 C 171.719 170.935,171.584 170.779,170.209 171.233 C 167.210 172.222,166.563 170.952,166.563 164.086 L 166.563 159.089 168.974 158.998 L 171.385 158.906 171.675 157.891 C 171.854 157.265,171.854 156.485,171.675 155.859 L 171.385 154.844 168.974 154.752 L 166.563 154.661 166.563 152.211 C 166.563 149.934,166.513 149.747,165.859 149.572 C 165.071 149.361,162.633 149.372,161.797 149.590 M127.513 154.402 C 123.439 155.116,121.626 156.636,122.064 158.970 C 122.335 160.413,122.677 160.478,124.861 159.499 C 128.871 157.700,132.444 158.153,133.108 160.544 C 133.779 162.963,133.678 163.125,131.484 163.127 C 124.672 163.133,120.938 165.494,120.938 169.794 C 120.938 175.302,127.373 178.006,132.598 174.692 L 134.025 173.788 134.122 174.628 C 134.217 175.451,134.264 175.469,136.406 175.469 L 138.594 175.469 138.594 167.188 C 138.594 158.938,138.591 158.901,137.813 157.500 C 136.372 154.907,132.050 153.607,127.513 154.402 M152.307 154.646 C 151.600 154.975,150.616 155.778,150.120 156.430 L 149.219 157.616 149.063 156.230 L 148.906 154.844 146.719 154.844 L 144.531 154.844 144.531 165.156 L 144.531 175.469 147.031 175.469 L 149.531 175.469 149.688 169.037 L 149.844 162.605 150.724 161.453 C 152.115 159.631,152.878 159.262,154.742 159.509 C 156.684 159.767,156.864 159.569,156.870 157.169 C 156.878 154.339,155.090 153.350,152.307 154.646 M181.336 154.494 C 176.632 155.684,174.231 159.394,174.231 165.469 C 174.231 174.038,180.088 177.927,189.352 175.509 C 191.995 174.819,192.188 174.624,192.188 172.636 C 192.188 170.541,192.027 170.457,189.505 171.235 C 184.114 172.901,180.415 171.623,179.820 167.891 L 179.608 166.563 185.762 166.563 C 193.312 166.563,193.125 166.637,193.125 163.619 C 193.125 156.738,188.034 152.798,181.336 154.494 M237.898 154.494 C 233.195 155.684,230.793 159.394,230.793 165.469 C 230.793 174.038,236.650 177.927,245.915 175.509 C 248.558 174.819,248.750 174.624,248.750 172.636 C 248.750 170.541,248.589 170.457,246.067 171.235 C 240.676 172.901,236.978 171.623,236.382 167.891 L 236.170 166.563 242.324 166.563 C 249.875 166.563,249.688 166.637,249.688 163.619 C 249.688 156.738,244.597 152.798,237.898 154.494 M280.951 154.402 C 276.877 155.116,275.064 156.636,275.501 158.970 C 275.772 160.413,276.115 160.478,278.298 159.499 C 282.309 157.700,285.881 158.153,286.545 160.544 C 287.217 162.963,287.115 163.125,284.922 163.127 C 278.109 163.133,274.375 165.494,274.375 169.794 C 274.375 175.302,280.811 178.006,286.036 174.692 L 287.462 173.788 287.559 174.628 C 287.654 175.451,287.702 175.469,289.844 175.469 L 292.031 175.469 292.031 167.188 C 292.031 158.938,292.028 158.901,291.250 157.500 C 289.809 154.907,285.487 153.607,280.951 154.402 M351.023 154.494 C 346.320 155.684,343.918 159.394,343.918 165.469 C 343.918 174.038,349.775 177.927,359.040 175.509 C 361.683 174.819,361.875 174.624,361.875 172.636 C 361.875 170.541,361.714 170.457,359.192 171.235 C 353.801 172.901,350.103 171.623,349.507 167.891 L 349.295 166.563 355.449 166.563 C 363.000 166.563,362.813 166.637,362.813 163.619 C 362.813 156.738,357.722 152.798,351.023 154.494 M334.210 155.068 C 334.124 155.291,334.091 159.973,334.136 165.471 L 334.219 175.469 336.719 175.469 L 339.219 175.469 339.219 165.156 L 339.219 154.844 336.792 154.752 C 335.020 154.686,334.323 154.771,334.210 155.068 M185.761 158.430 C 186.835 158.838,187.810 160.513,187.811 161.953 L 187.813 163.125 183.715 163.125 L 179.618 163.125 179.835 161.953 C 180.414 158.830,182.910 157.346,185.761 158.430 M242.323 158.430 C 243.398 158.838,244.372 160.513,244.374 161.953 L 244.375 163.125 240.278 163.125 L 236.180 163.125 236.398 161.953 C 236.977 158.830,239.473 157.346,242.323 158.430 M355.448 158.430 C 356.523 158.838,357.497 160.513,357.499 161.953 L 357.500 163.125 353.403 163.125 L 349.305 163.125 349.523 161.953 C 350.102 158.830,352.598 157.346,355.448 158.430 M217.402 159.081 C 217.885 159.263,218.809 159.925,219.453 160.551 L 220.625 161.689 220.625 165.156 L 220.625 168.623 219.453 169.762 C 216.403 172.726,213.355 171.775,212.486 167.588 C 211.363 162.177,213.911 157.767,217.402 159.081 M133.375 168.345 C 133.155 172.527,126.250 173.883,126.250 169.744 C 126.250 167.683,127.985 166.641,131.500 166.591 L 133.469 166.563 133.375 168.345 M286.812 168.345 C 286.593 172.527,279.688 173.883,279.688 169.744 C 279.688 167.683,281.423 166.641,284.937 166.591 L 286.906 166.563 286.812 168.345 " stroke="none" fill="#000000" fill-rule="evenodd"></path></g></svg>