<?xml version="1.0" standalone="no"?>
<svg contentScriptType="text/ecmascript" width="400" xmlns:xlink="http://www.w3.org/1999/xlink" baseProfile="full"
    zoomAndPan="magnify" contentStyleType="text/css" viewBox="0, 0, 400,222.5" height="222.5" id="svg"
    preserveAspectRatio="xMidYMid meet" xmlns="http://www.w3.org/2000/svg" version="1.0">
    <g fill="#ffffff" id="svgg">
        <path fill="#ffffff" id="path0" d="M 107.781 22.605999 C 107.572 23.304 107.298 23.875 107.172 23.875 C 107.046 
            23.875 106.848 24.262 106.733 24.734 C 105.971 27.856 102.09 28.999 98.585 27.135 C 97.79 26.713 97.01 
            26.448 96.851 26.546 C 96.462 26.786 96.482 27.938 96.875 27.938 C 97.047 27.938 97.188 28.092 97.188 28.281 
            C 97.188 28.47 97.821 29.208 98.596 29.922 C 100.749 31.905 100.877 32.0 101.39 32.0 C 101.654 32.0 102.045 
            32.281 102.26 32.625 C 102.475 32.969 102.827 33.25 103.044 33.25 C 103.273 33.25 103.438 33.642 103.438 
            34.188 C 103.438 34.703 103.28 35.125 103.089 35.125 C 102.885 35.125 102.802 35.45 102.889 35.906 C 102.971 
            36.336 102.931 36.688 102.8 36.688 C 102.669 36.688 102.463 37.531 102.344 38.563 C 102.224 39.594 102.016 
            40.438 101.88 40.438 C 101.745 40.438 101.538 41.211 101.42 42.156 C 101.302 43.102 101.088 43.875 100.944 
            43.875 C 100.801 43.875 100.587 44.578 100.469 45.438 C 100.351 46.297 100.146 47.0 100.015 47.0 C 99.883 
            47.0 99.596 48.055 99.375 49.344 C 99.154 50.633 98.867 51.688 98.735 51.688 C 98.604 51.688 98.399 52.391 
            98.281 53.25 C 98.163 54.109 97.952 54.813 97.813 54.813 C 97.673 54.813 97.462 55.516 97.344 56.375 C 
            97.226 57.234 96.985 57.938 96.809 57.938 C 96.633 57.938 96.563 58.219 96.653 58.563 C 96.743 58.906 96.707 
            59.188 96.574 59.188 C 96.44 59.188 96.237 59.891 96.123 60.75 C 96.009 61.609 95.789 62.313 95.633 62.313 C 
            95.478 62.313 95.256 62.945 95.14 63.719 C 95.024 64.492004 94.817 65.125 94.679 65.125 C 94.542 65.125 
            94.335 65.688 94.219 66.375 C 94.103 67.063 93.895 67.625 93.758 67.625 C 93.621 67.625 93.336 68.539 93.125 
            69.656 C 92.914 70.772995 92.623 71.688 92.479 71.688 C 92.334 71.688 92.123 72.18 92.011 72.781 C 91.898 
            73.383 91.689 73.875 91.547 73.875 C 91.405 73.875 91.193 74.508 91.077 75.281 C 90.961 76.055 90.756 76.688 
            90.621 76.688 C 90.485 76.688 90.206 77.391 90.0 78.25 C 89.794 79.109 89.514 79.813 89.379 79.813 C 89.243 
            79.813 89.04 80.305 88.927 80.906 C 88.814 81.508 88.603 82.0 88.458 82.0 C 88.313 82.0 88.102 82.492 87.989 
            83.094 C 87.877 83.695 87.635 84.188 87.452 84.188 C 87.27 84.188 87.202 84.398 87.301 84.656 C 87.399 
            84.914 87.344 85.125 87.178 85.125 C 87.011 85.125 86.875 85.406 86.875 85.75 C 86.875 86.094 86.719 86.375 
            86.529 86.375 C 86.339 86.375 86.264 86.586 86.363 86.844 C 86.462 87.102 86.418 87.313 86.265 87.313 C 
            86.112 87.313 85.895 87.734 85.781 88.25 C 85.668 88.766 85.461 89.188 85.322 89.188 C 85.182 89.188 84.981 
            89.534 84.874 89.958 C 84.754 90.437 84.52 90.666 84.256 90.565 C 84.022 90.475 83.612 90.621 83.344 90.888 
            C 82.555 91.677 69.515 91.598 67.222 90.79 C 64.401 89.797 62.561 87.313 64.287 86.829 C 65.550995 86.475 
            65.994 86.61 66.949005 87.64 C 68.891 89.735 70.082 87.43 68.19 85.237 C 64.684 81.171 59.092 83.572 59.067 
            89.155 C 59.057 91.46 61.709 96.375 62.963 96.375 C 63.086 96.375 63.63 96.584 64.172 96.839 C 65.145996 
            97.299 69.334 97.995 74.922 98.626 C 76.512 98.806 77.813 99.076 77.813 99.226 C 77.813 99.377 78.41 99.511 
            79.141 99.525 C 79.871 99.538 80.293 99.62 80.078 99.707 C 79.863 99.794 79.688 100.013 79.688 100.195 C 
            79.687 100.652 78.367 103.315 77.891 103.819 C 77.676 104.046 77.5 104.433 77.5 104.679 C 77.5 104.924 
            77.344 105.125 77.154 105.125 C 76.964 105.125 76.889 105.336 76.988 105.594 C 77.087 105.852 77.043 106.063 
            76.89 106.063 C 76.737 106.063 76.52 106.484 76.406 107.0 C 76.293 107.516 76.082 107.938 75.938 107.938 C 
            75.793 107.938 75.582 108.359 75.469 108.875 C 75.355 109.391 75.136 109.813 74.981 109.813 C 74.826 109.813 
            74.611 110.164 74.503 110.594 C 74.395 111.023 74.167 111.375 73.995 111.375 C 73.824 111.375 73.764 111.586 
            73.863 111.844 C 73.962 112.102 73.918 112.313 73.765 112.313 C 73.612 112.313 73.395 112.734 73.281 113.25 
            C 73.168 113.766 72.957 114.188 72.813 114.188 C 72.668 114.188 72.457 114.609 72.344 115.125 C 72.23 
            115.641 72.011 116.063 71.856 116.063 C 71.701 116.063 71.486 116.414 71.378 116.844 C 71.27 117.273 71.042 
            117.625 70.87 117.625 C 70.699 117.625 70.639 117.836 70.738 118.094 C 70.837 118.352 70.793 118.563 70.64 
            118.563 C 70.487 118.563 70.27 118.984 70.156 119.5 C 70.043 120.016 69.832 120.438 69.688 120.438 C 69.543 
            120.438 69.332 120.859 69.219 121.375 C 69.105 121.891 68.882996 122.313 68.725 122.313 C 68.567 122.313 
            68.438 122.513 68.437 122.759 C 68.437 123.004 68.218 123.425 67.949005 123.694 C 67.68 123.963 67.548004 
            124.324 67.655 124.498 C 67.762 124.671 67.7 124.813 67.518005 124.813 C 67.336 124.813 67.188 125.154 
            67.188 125.571 C 67.187 125.989 66.984 126.534 66.734 126.784 C 66.485 127.033 66.188 127.606 66.075 128.056 
            C 65.962006 128.506 65.756 128.875 65.616 128.875 C 65.476 128.875 65.270004 129.297 65.156 129.813 C 65.043 
            130.328 64.847 130.75 64.721 130.75 C 64.595 130.75 64.298996 131.242 64.063 131.844 C 63.826 132.445 63.53 
            132.938 63.404 132.938 C 63.278 132.938 63.085 133.34799 62.974 133.849 C 62.864 134.35 62.572 134.838 
            62.325 134.933 C 62.077 135.028 61.875 135.312 61.875 135.564 C 61.875 136.044 56.295 135.931 55.938 135.443 
            C 55.741 135.175 50.293 134.555 49.766 134.741 C 49.056 134.992 49.338 136.792 50.194 137.469 C 50.628 
            137.813 51.736 138.797 52.655 139.656 C 53.574 140.516 54.711 141.5 55.183 141.844 C 56.689 142.941 57.022 
            143.358 56.526 143.52 C 56.288 143.598 55.909 143.922 55.682 144.241 C 55.456 144.56 54.753 145.102 54.12 
            145.445 C 52.399 146.378 51.828 146.772 51.078 147.547 C 50.704 147.934 50.273 148.252 50.12 148.255 C 
            49.968 148.258 49.513 148.61 49.108 149.037 C 48.703 149.463 48.249 149.812 48.1 149.812 C 47.75 149.812 
            44.063 153.561 44.062 153.917 C 44.062 154.065 43.359 154.863 42.5 155.692 C 41.641 156.52 40.937 157.33 
            40.938 157.493 C 40.938 157.655 40.516 158.137 40.0 158.562 C 39.484 158.988 39.063 159.509 39.063 159.718 C 
            39.063 159.928 38.677 160.457 38.206 160.894 C 37.735 161.33 37.461 161.688 37.597 161.688 C 37.733 161.687 
            37.511 162.004 37.102 162.391 C 36.694 162.777 36.268997 163.34 36.158 163.641 C 36.048 163.941 35.812 
            164.188 35.635002 164.188 C 35.458 164.188 35.313 164.381 35.313 164.618 C 35.313 164.855 35.103 165.222 
            34.847 165.435 C 34.591 165.647 34.459 165.946 34.553 166.098 C 34.647 166.25 34.575 166.375 34.392998 
            166.375 C 34.211 166.375 34.063 166.564 34.062 166.796 C 34.062 167.166 33.793 167.565 32.517998 169.083 C 
            32.35 169.283 32.122 169.81 32.010002 170.254 C 31.899 170.699 31.674 171.063 31.51 171.063 C 31.347 171.063 
            31.3 171.203 31.406 171.375 C 31.512 171.547 31.462 171.688 31.293 171.688 C 31.125 171.688 30.895 172.109 
            30.781 172.625 C 30.668 173.141 30.457 173.563 30.313 173.563 C 30.168 173.563 29.957 173.984 29.844 174.5 C 
            29.73 175.016 29.52 175.438 29.375 175.438 C 29.23 175.438 29.02 175.859 28.906 176.375 C 28.793 176.891 
            28.563 177.313 28.394 177.313 C 28.226 177.313 28.169 177.443 28.268 177.603 C 28.367 177.763 28.321 177.973 
            28.166 178.069 C 28.01 178.165 27.791 178.737 27.678 179.34 C 27.564 179.944 27.366 180.438 27.238 180.438 C 
            26.901 180.438 26.141 184.078 26.359 184.647 C 26.518 185.06 27.882 185.134 36.396 185.191 C 41.816 185.227 
            46.988 185.263 47.891 185.269 L 49.531 185.281 L 49.625 183.484 C 49.677 182.482 49.866 181.688 50.051 
            181.688 C 50.243 181.688 50.325 181.29 50.246 180.75 C 50.17 180.234 50.209 179.813 50.332 179.813 C 50.455 
            179.813 50.648 179.32 50.761 178.719 C 50.873 178.117 51.084 177.625 51.229 177.625 C 51.374 177.625 51.585 
            177.133 51.698 176.531 C 51.811 175.93 52.026 175.438 52.177 175.438 C 52.327 175.438 52.543 175.016 52.656 
            174.5 C 52.77 173.984 53.007 173.563 53.183 173.563 C 53.36 173.563 53.423 173.352 53.324 173.094 C 53.226 
            172.836 53.285 172.625 53.457 172.625 C 53.629 172.625 53.863 172.382 53.977 172.085 C 54.091 171.788 54.508 
            171.245 54.905 170.877 C 55.301 170.51 55.625 170.057 55.625 169.87 C 55.625 169.684 55.87 169.394 56.169 
            169.226 C 56.469 169.059 56.623 168.832 56.513 168.721 C 56.291 168.499 60.442 164.187 60.879 164.188 C 
            61.03 164.188 61.479 163.906 61.875 163.563 C 62.271 163.219 62.785 162.938 63.017 162.938 C 63.248 162.938 
            63.438 162.815 63.438 162.666 C 63.438 162.516 64.07 162.217 64.844 162.0 C 65.617004 161.783 66.25 161.493 
            66.25 161.354 C 66.25 161.215 66.918 161.002 67.734 160.882 C 68.550995 160.762 69.319 160.507 69.441 
            160.317 C 69.765 159.813 78.508 159.867 78.677 160.374 C 78.746 160.581 79.177 160.76 79.635 160.772 C 
            80.643 160.799 81.963 161.302 81.25 161.387 C 80.992 161.418 81.414 161.567 82.188 161.718 C 82.961 161.869 
            83.75 162.205 83.941 162.465 C 84.132 162.725 84.413 162.938 84.566 162.938 C 84.719 162.939 85.125 163.36 
            85.469 163.875 C 85.813 164.39 86.192 164.811 86.313 164.812 C 86.866 164.814 90.313 170.653 90.313 171.588 
            C 90.313 171.815 90.437 172.0 90.59 172.0 C 90.743 172.0 90.96 172.492 91.073 173.094 C 91.186 173.695 
            91.413 174.188 91.577 174.188 C 91.741 174.188 91.875 174.406 91.875 174.673 C 91.875 174.941 92.143 175.749 
            92.472 176.47 C 92.8 177.191 93.17 178.344 93.294 179.031 C 93.418 179.719 93.624 180.422 93.751 180.594 C 
            93.879 180.766 94.078 181.539 94.194 182.313 C 94.572 184.842 93.908 184.691 105.533 184.898 C 115.728 
            185.079 115.912 185.071 116.108 184.455 C 116.356 183.673 115.943 177.313 115.644 177.313 C 115.523 177.313 
            115.247 175.591 115.031 173.487 C 114.814 171.383 114.534 169.59 114.409 169.503 C 114.285 169.415 114.028 
            168.359 113.839 167.156 C 113.266 163.51 112.088 159.118 111.061 156.797 C 110.821 156.255 110.625 155.655 
            110.625 155.464 C 110.625 155.273 110.493 154.872 110.332 154.574 C 109.69 153.386 108.438 150.457 108.438 
            150.144 C 108.438 149.962 108.297 149.813 108.125 149.813 C 107.953 149.813 107.807 149.566 107.8 149.266 C 
            107.792 148.965 107.318 147.734 106.746 146.531 C 105.497 143.908 105.493 143.926 107.744 142.765 C 108.727 
            142.258 109.644 141.668 109.781 141.453 C 109.919 141.238 110.22 141.063 110.451 141.063 C 110.682 141.063 
            110.952 140.852 111.051 140.594 C 111.149 140.336 111.446 140.125 111.709 140.125 C 111.972 140.125 112.188 
            139.996 112.188 139.837 C 112.188 139.679 112.619 139.455 113.146 139.339 C 113.673 139.223 114.181 138.931 
            114.273 138.689 C 114.366 138.448 114.628 138.25 114.855 138.25 C 115.311 138.25 116.25 137.416 116.25 
            137.01 C 116.25 136.869 114.598 136.757 112.578 136.761 C 110.559 136.766 107.294 136.645 105.323 136.494 L 
            101.74 136.219 L 101.45 135.203 C 101.29 134.64499 101.039 134.187 100.892 134.188 C 100.745 134.188 100.624 
            134.012 100.623 133.797 C 100.622 133.582 100.399 132.98401 100.126 132.469 C 99.854 131.953 99.488 130.055 
            99.312 128.25 C 99.137 126.445 98.879 124.827 98.74 124.654 C 98.6 124.48 98.386 122.969 98.263 121.294 C 
            98.14 119.62 97.933 118.25 97.803 118.25 C 97.674 118.25 97.473 116.809 97.357 115.047 C 97.242 113.285 
            97.023 111.07 96.871 110.125 C 96.718 109.18 96.498 106.965 96.382 105.203 L 96.169 102.0 L 102.769 102.0 C 
            110.175 102.0 111.108 101.809 114.061 99.687 C 114.922 99.069 115.767 98.563 115.938 98.563 C 116.11 98.563 
            116.25 98.447 116.25 98.306 C 116.25 97.713 120.51 96.203 123.203 95.842 C 124.609 95.653 124.667 95.922 
            123.608 97.729 C 122.157 100.204 123.442 100.42 126.326 98.187 C 130.07199 95.286 131.956 93.063 131.72299 
            91.819 C 131.66101 91.489 131.6 91.127 131.586 91.015 C 131.489 90.187 121.512 90.197 120.514 91.025 C 
            120.295 91.207 119.319 91.45 118.346 91.564 C 117.27 91.69 116.655 91.896 116.774 92.09 C 116.902 92.297 
            116.493 92.342 115.595 92.218 C 114.677 92.091 114.427 92.12 114.844 92.304 C 115.4 92.551 115.374 92.583 
            114.605 92.603 C 114.13 92.615 113.497 92.761 113.199 92.928 C 112.9 93.095 111.813 93.451 110.781 93.721 C 
            109.75 93.99 108.414 94.344 107.813 94.507 C 105.783 95.058 100.313 93.947 100.313 92.984 C 100.313 92.762 
            99.471 92.275 98.057 91.679 L 97.208 91.321 L 97.401 88.301 C 97.508 86.64 97.694 85.211 97.816 85.125 C 
            97.938 85.039 98.139 83.423 98.263 81.534 C 98.388 79.644 98.634 78.009 98.81 77.9 C 98.987 77.791 99.08 
            77.052 99.017 76.257 C 98.953 75.463 98.992 74.812 99.101 74.813 C 99.211 74.813 99.401 73.617 99.522 72.156 
            C 99.644 70.695 99.862 69.5 100.007 69.5 C 100.151 69.5 100.368 68.375 100.488 67.0 C 100.608 65.625 100.814 
            64.5 100.946 64.5 C 101.078 64.5 101.285 63.516 101.406 62.313 C 101.527 61.109 101.768 60.125 101.941 
            60.125 C 102.117 60.125 102.2 59.642 102.128 59.031 C 102.058 58.43 102.096 57.938 102.214 57.938 C 102.331 
            57.938 102.525 56.883 102.646 55.594 C 102.767 54.305 102.978 53.25 103.115 53.25 C 103.252 53.25 103.463 
            52.336 103.582 51.219 C 103.702 50.102 103.911 49.188 104.047 49.188 C 104.183 49.188 104.39 48.344 104.506 
            47.313 C 104.623 46.281 104.833 45.438 104.973 45.438 C 105.113 45.438 105.316 44.791 105.425 44.0 C 105.533 
            43.209 105.846 41.838 106.12 40.953 C 107.206 37.443 107.461 36.475998 107.657 35.125 C 107.857 33.738 
            107.885 33.711 109.633 33.142998 C 112.761 32.126 114.741 31.039 116.296 29.484 C 118.4 27.38 118.244 26.677 
            115.93 27.832 C 115.358 28.117 113.89 28.415 112.67 28.493 C 109.697 28.684 109.531 28.474 109.531 24.53 C 
            109.531 20.986 108.58 19.939999 107.781 22.605999 M 91.245 88.953 C 91.24 89.785 90.747 90.664 90.452 90.368 
            C 90.276 90.193 90.935 88.25 91.17 88.25 C 91.214 88.25 91.248 88.566 91.245 88.953 M 86.25 109.813 C 86.25 
            112.597 86.242 112.625 85.477 112.625 C 84.707 112.625 84.602 110.925 85.341 110.432 C 85.475 110.342 85.682 
            109.534 85.801 108.635 C 86.116 106.265 86.25 106.618 86.25 109.813 M 84.837 119.266 C 84.944 120.168 84.989 
            124.563 84.938 129.031 L 84.844 137.156 L 82.813 137.048 C 81.695 136.988 80.734 136.813 80.677 136.657 C 
            80.62 136.502 79.46 136.375 78.099 136.375 C 75.833 136.375 75.625 136.322 75.625 135.75 C 75.625 135.406 
            75.743 135.125 75.888 135.125 C 76.032 135.125 76.324 134.35199 76.535 133.406 C 76.747 132.461 77.05 
            131.688 77.21 131.688 C 77.369 131.688 77.5 131.367 77.5 130.976 C 77.5 130.584 77.693 129.987 77.929 
            129.64801 C 78.165 129.30899 78.457 128.574 78.579 128.01599 C 78.7 127.457 78.929 127.0 79.087 127.0 C 
            79.246 127.0 79.375 126.785 79.375 126.522 C 79.375 126.065 80.661 122.684 81.218 121.677 C 81.364 121.414 
            81.582 120.746 81.704 120.193 C 81.825 119.64 82.039 119.188 82.178 119.188 C 82.318 119.188 82.52 118.836 
            82.628 118.406 C 83.048 116.735 84.609 117.342 84.837 119.266 M 279.866 125.09 C 279.771 125.242 279.181 
            125.463 278.555 125.58 C 276.765 125.916 272.5 129.479 272.5 130.638 C 272.5 130.871 272.359 131.063 272.188 
            131.063 C 272.0 131.063 271.875 132.313 271.875 134.188 C 271.875 135.906 272.0 137.313 272.154 137.313 C 
            272.307 137.313 272.526 137.684 272.64 138.139 C 272.97 139.456 274.658 141.813 275.732 142.459 C 277.334 
            143.421 279.503 144.48 279.896 144.49 C 280.096 144.496 280.307 144.634 280.365 144.797 C 280.422 144.961 
            281.453 145.183 282.656 145.29 C 283.859 145.397 285.125 145.599 285.469 145.738 C 286.462 146.141 290.324 
            146.78 290.528 146.576 C 290.87 146.235 289.968 145.48 288.963 145.265 C 288.416 145.148 287.828 144.947 
            287.656 144.817 C 287.484 144.688 286.816 144.486 286.172 144.37 C 285.527 144.254 285.0 144.041 285.0 
            143.896 C 285.0 143.752 284.367 143.539 283.594 143.423 C 282.82 143.307 282.188 143.106 282.188 142.977 C 
            282.188 142.849 281.484 142.563 280.625 142.343 C 279.766 142.122 279.063 141.815 279.063 141.659 C 279.063 
            141.503 278.88 141.375 278.657 141.375 C 278.434 141.375 277.907 140.953 277.485 140.438 C 277.064 139.923 
            276.473 139.199 276.172 138.828 C 275.871 138.458 275.621 137.93 275.615 137.655 C 275.61 137.381 275.399 
            136.883 275.146 136.55 C 274.317 135.453 275.167 131.318 276.328 130.802 C 276.457 130.745 276.563 130.538 
            276.563 130.343 C 276.563 129.82599 278.13 128.563 278.773 128.563 C 279.075 128.563 279.382 128.387 279.454 
            128.172 C 279.617 127.685 288.085 127.685 288.395 128.172 C 288.504 128.344 289.051 128.58301 289.609 
            128.70401 C 290.168 128.82599 290.625 129.054 290.625 129.212 C 290.625 129.371 290.863 129.5 291.154 129.5 
            C 292.888 129.5 299.041 134.452 301.249 137.625 C 301.668 138.227 302.176 138.89 302.378 139.099 C 302.581 
            139.308 303.07 140.151 303.466 140.974 C 303.862 141.796 304.369 142.655 304.593 142.882 C 304.817 143.109 
            305.0 143.496 305.0 143.741 C 305.0 143.987 305.141 144.188 305.313 144.188 C 305.484 144.188 305.63 144.363 
            305.636 144.578 C 305.641 144.793 305.918 145.531 306.25 146.219 C 306.582 146.906 306.859 147.658 306.864 
            147.889 C 306.87 148.121 307.078 148.683 307.327 149.139 C 308.335 150.99 309.548 154.18 310.049 156.297 C 
            310.222 157.027 310.477 157.625 310.616 157.625 C 310.756 157.625 310.966 158.012 311.084 158.484 C 311.202 
            158.957 311.477 159.555 311.695 159.813 C 311.913 160.07 313.756 165.203 315.791 171.219 C 317.826 177.234 
            319.64 182.26 319.823 182.386 C 320.418 182.796 326.455 182.665 326.795 182.234 C 326.965 182.02 329.111 
            175.809 331.564 168.433 C 336.579 153.353 336.472 154.188 333.398 154.188 C 330.471 154.188 330.831 153.534 
            327.048 165.723 C 325.175 171.763 323.539 176.595 323.414 176.461 C 323.288 176.328 321.821 171.859 320.152 
            166.531 C 318.483 161.203 316.853 156.04 316.528 155.057 C 316.203 154.074 315.938 152.976 315.938 152.616 C 
            315.938 152.257 315.797 152.05 315.625 152.156 C 315.453 152.262 315.313 152.046 315.313 151.675 C 315.313 
            150.974 315.009 150.204 313.596 147.313 C 312.399 144.864 311.74 143.703 311.228 143.135 C 309.921 141.685 
            308.867 140.377 307.419 138.406 C 304.67 134.664 299.064 129.375 297.48 129.02701 C 296.999 128.92099 
            296.438 128.633 296.233 128.386 C 296.029 128.139 295.677 127.938 295.453 127.938 C 295.228 127.938 294.859 
            127.762 294.632 127.547 C 294.25 127.186 292.292 126.497 288.223 125.292 C 286.453 124.768 280.159 124.616 
            279.866 125.09 M 226.172 152.65 C 225.685 152.933 225.625 153.549 225.625 158.244 L 225.625 163.52 L 224.099 
            162.493 C 219.085 159.119 213.438 162.115 211.993 168.916 C 209.654 179.924 218.005 187.261 225.441 180.732 
            L 226.525 179.781 L 226.622 181.125 L 226.719 182.469 L 228.906 182.469 L 231.094 182.469 L 231.176 167.781 
            C 231.251 154.251 231.216 153.063 230.725 152.703 C 230.089 152.236 226.945 152.2 226.172 152.65 M 269.763 
            152.572 C 269.453 152.768 269.386 155.994 269.45 167.645 L 269.531 182.469 L 272.031 182.469 L 274.531 
            182.469 L 274.612 167.645 C 274.704 150.968 274.932 152.322 272.031 152.322 C 271.0 152.322 269.979 152.435 
            269.763 152.572 M 339.93 153.298 C 337.873 154.05 338.17 157.985 340.327 158.566 C 342.772 159.225 344.504 
            158.45 344.863 156.538 C 345.395 153.701 343.047 152.159 339.93 153.298 M 166.797 156.59 C 166.334 156.711 
            166.25 157.113 166.25 159.193 L 166.25 161.653 L 164.766 161.749 L 163.281 161.844 L 163.281 163.875 L 
            163.281 165.906 L 164.744 166.001 L 166.206 166.095 L 166.306 172.719 C 166.444 181.852 167.224 183.055 
            172.88 182.87 C 176.269 182.76 176.719 182.421 176.719 179.984 C 176.719 177.935 176.584 177.779 175.209 
            178.233 C 172.21 179.222 171.563 177.952 171.563 171.086 L 171.563 166.089 L 173.974 165.998 L 176.385 
            165.906 L 176.675 164.891 C 176.854 164.265 176.854 163.485 176.675 162.859 L 176.385 161.844 L 173.974 
            161.752 L 171.563 161.661 L 171.563 159.211 C 171.563 156.934 171.513 156.747 170.859 156.572 C 170.071 
            156.361 167.633 156.372 166.797 156.59 M 132.513 161.402 C 128.439 162.116 126.626 163.636 127.064 165.97 C 
            127.335 167.413 127.677 167.478 129.861 166.499 C 133.871 164.7 137.444 165.153 138.108 167.544 C 138.779 
            169.963 138.678 170.125 136.484 170.127 C 129.672 170.133 125.938 172.494 125.938 176.794 C 125.938 182.302 
            132.373 185.006 137.598 181.692 L 139.025 180.788 L 139.122 181.628 C 139.217 182.451 139.264 182.469 
            141.406 182.469 L 143.594 182.469 L 143.594 174.188 C 143.594 165.938 143.591 165.901 142.813 164.5 C 
            141.372 161.907 137.05 160.607 132.513 161.402 M 157.307 161.646 C 156.6 161.975 155.616 162.778 155.12 
            163.43 L 154.219 164.616 L 154.063 163.23 L 153.906 161.844 L 151.719 161.844 L 149.531 161.844 L 149.531 
            172.156 L 149.531 182.469 L 152.031 182.469 L 154.531 182.469 L 154.688 176.037 L 154.844 169.605 L 155.724 
            168.453 C 157.115 166.631 157.878 166.262 159.742 166.509 C 161.684 166.767 161.864 166.569 161.87 164.169 C 
            161.878 161.339 160.09 160.35 157.307 161.646 M 186.336 161.494 C 181.632 162.684 179.231 166.394 179.231 
            172.469 C 179.231 181.038 185.088 184.927 194.352 182.509 C 196.995 181.819 197.188 181.624 197.188 179.636 
            C 197.188 177.541 197.027 177.457 194.505 178.235 C 189.114 179.901 185.415 178.623 184.82 174.891 L 184.608 
            173.563 L 190.762 173.563 C 198.312 173.563 198.125 173.637 198.125 170.619 C 198.125 163.738 193.034 
            159.798 186.336 161.494 M 242.898 161.494 C 238.195 162.684 235.793 166.394 235.793 172.469 C 235.793 
            181.038 241.65 184.927 250.915 182.509 C 253.558 181.819 253.75 181.624 253.75 179.636 C 253.75 177.541 
            253.589 177.457 251.067 178.235 C 245.676 179.901 241.978 178.623 241.382 174.891 L 241.17 173.563 L 247.324 
            173.563 C 254.875 173.563 254.688 173.637 254.688 170.619 C 254.688 163.738 249.597 159.798 242.898 161.494 
            M 285.951 161.402 C 281.877 162.116 280.064 163.636 280.501 165.97 C 280.772 167.413 281.115 167.478 283.298 
            166.499 C 287.309 164.7 290.881 165.153 291.545 167.544 C 292.217 169.963 292.115 170.125 289.922 170.127 C 
            283.109 170.133 279.375 172.494 279.375 176.794 C 279.375 182.302 285.811 185.006 291.036 181.692 L 292.462 
            180.788 L 292.559 181.628 C 292.654 182.451 292.702 182.469 294.844 182.469 L 297.031 182.469 L 297.031 
            174.188 C 297.031 165.938 297.028 165.901 296.25 164.5 C 294.809 161.907 290.487 160.607 285.951 161.402 M 
            356.023 161.494 C 351.32 162.684 348.918 166.394 348.918 172.469 C 348.918 181.038 354.775 184.927 364.04 
            182.509 C 366.683 181.819 366.875 181.624 366.875 179.636 C 366.875 177.541 366.714 177.457 364.192 178.235 
            C 358.801 179.901 355.103 178.623 354.507 174.891 L 354.295 173.563 L 360.449 173.563 C 368.0 173.563 
            367.813 173.637 367.813 170.619 C 367.813 163.738 362.722 159.798 356.023 161.494 M 339.21 162.068 C 339.124 
            162.291 339.091 166.973 339.136 172.471 L 339.219 182.469 L 341.719 182.469 L 344.219 182.469 L 344.219 
            172.156 L 344.219 161.844 L 341.792 161.752 C 340.02 161.686 339.323 161.771 339.21 162.068 M 190.761 165.43 
            C 191.835 165.838 192.81 167.513 192.811 168.953 L 192.813 170.125 L 188.715 170.125 L 184.618 170.125 L 
            184.835 168.953 C 185.414 165.83 187.91 164.346 190.761 165.43 M 247.323 165.43 C 248.398 165.838 249.372 
            167.513 249.374 168.953 L 249.375 170.125 L 245.278 170.125 L 241.18 170.125 L 241.398 168.953 C 241.977 
            165.83 244.473 164.346 247.323 165.43 M 360.448 165.43 C 361.523 165.838 362.497 167.513 362.499 168.953 L 
            362.5 170.125 L 358.403 170.125 L 354.305 170.125 L 354.523 168.953 C 355.102 165.83 357.598 164.346 360.448 
            165.43 M 222.402 166.081 C 222.885 166.263 223.809 166.925 224.453 167.551 L 225.625 168.689 L 225.625 
            172.156 L 225.625 175.623 L 224.453 176.762 C 221.403 179.726 218.355 178.775 217.486 174.588 C 216.363 
            169.177 218.911 164.767 222.402 166.081 M 138.375 175.345 C 138.155 179.527 131.25 180.883 131.25 176.744 C 
            131.25 174.683 132.985 173.641 136.5 173.591 L 138.469 173.563 L 138.375 175.345 M 291.812 175.345 C 291.593 
            179.527 284.688 180.883 284.688 176.744 C 284.688 174.683 286.423 173.641 289.937 173.591 L 291.906 173.563 
            L 291.812 175.345" fill-rule="evenodd" stroke="none"/>
    </g>
</svg>